<?xml version="1.0" encoding="utf-8"?>
<!-- Generator: Adobe Illustrator 24.3.0, SVG Export Plug-In . SVG Version: 6.00 Build 0)  -->
<svg version="1.1" id="Ebene_1" xmlns="http://www.w3.org/2000/svg" xmlns:xlink="http://www.w3.org/1999/xlink" x="0px" y="0px"
	 viewBox="0 0 250 68" style="enable-background:new 0 0 250 68;" xml:space="preserve">
<style type="text/css">
	.st0{fill:#FFFFFF;}
	.st1{fill:#E3001F;}
	.st2{fill:#1D1D1B;}
</style>
<rect x="0.3" y="14" class="st0" width="249.7" height="41.1"/>
<g>
	<path d="M249,14.5v39H1v-39H249 M250,13.5H0v41h250V13.5L250,13.5z"/>
	<rect x="126" y="13.5" width="1" height="41"/>
	<rect x="208" y="13.5" width="1" height="41"/>
</g>
<g>
	<path class="st1" d="M196.8,27.9V37c0,0.1-0.1,0.2-0.2,0.1l-5.2-9.2c-0.1-0.1-0.2-0.2-0.3-0.2H189c-0.2,0-0.2,0.1-0.2,0.2v13.2
		c0,0.2,0.1,0.2,0.2,0.2h1.9c0.2,0,0.2-0.1,0.2-0.2v-9c0-0.1,0.1-0.2,0.2-0.1l5.2,9.1c0.1,0.1,0.2,0.2,0.3,0.2h2.2
		c0.2,0,0.2-0.1,0.2-0.2V27.9c0-0.2-0.1-0.2-0.2-0.2H197C196.8,27.7,196.8,27.8,196.8,27.9 M182.6,41.3h1.9c0.2,0,0.2-0.1,0.2-0.2
		V27.9c0-0.2-0.1-0.2-0.2-0.2h-1.9c-0.2,0-0.2,0.1-0.2,0.2v13.2C182.4,41.2,182.5,41.3,182.6,41.3 M174.9,39V27.9
		c0-0.2-0.1-0.2-0.2-0.2h-1.9c-0.2,0-0.2,0.1-0.2,0.2v13.2c0,0.2,0.1,0.2,0.2,0.2h6.7c0.2,0,0.2-0.1,0.2-0.2v-1.8
		c0-0.2-0.1-0.2-0.2-0.2h-4.4C174.9,39.1,174.9,39,174.9,39 M162.3,29.9h1.8c1.6,0,2.8,0.9,2.8,2.6c0,1.8-1.3,2.6-2.9,2.6h-1.8
		c-0.1,0-0.1-0.1-0.1-0.1V30C162.1,30,162.2,29.9,162.3,29.9 M166.8,41.3h2.5c0.2,0,0.3-0.2,0.2-0.3l-2.9-3.9
		c-0.1-0.1-0.1-0.2,0.1-0.2c1.8-0.7,2.9-2.2,2.9-4.4c0-3-2.3-4.9-5.2-4.9h-4.2c-0.2,0-0.2,0.1-0.2,0.2v13.2c0,0.2,0.1,0.2,0.2,0.2
		h1.9c0.2,0,0.2-0.1,0.2-0.2v-3.6c0-0.1,0.1-0.1,0.1-0.1h1.5c0.1,0,0.1,0.1,0.2,0.1l2.6,3.7C166.6,41.3,166.7,41.3,166.8,41.3
		 M156.2,29.7v-1.8c0-0.2-0.1-0.2-0.2-0.2h-7.1c-0.2,0-0.2,0.1-0.2,0.2v13.2c0,0.2,0.1,0.2,0.2,0.2h7.1c0.2,0,0.2-0.1,0.2-0.2v-1.8
		c0-0.2-0.1-0.2-0.2-0.2h-4.9c-0.1,0-0.1-0.1-0.1-0.1v-3.3c0-0.1,0.1-0.1,0.1-0.1h4.9c0.2,0,0.2-0.1,0.2-0.2v-1.8
		c0-0.2-0.1-0.2-0.2-0.2h-4.9c-0.1,0-0.1-0.1-0.1-0.1v-3.1c0-0.1,0.1-0.1,0.1-0.1h4.9C156.1,29.9,156.2,29.8,156.2,29.7 M141.3,39.1
		h-2.1c-0.1,0-0.1-0.1-0.1-0.1v-3.3c0-0.1,0.1-0.1,0.1-0.1h2.1c1.3,0,2,0.7,2,1.8C143.2,38.4,142.5,39.1,141.3,39.1 M141.1,29.9
		c1.2,0,1.9,0.6,1.9,1.7c0,1-0.7,1.7-1.9,1.7h-1.9c-0.1,0-0.1-0.1-0.1-0.1v-3.1c0-0.1,0.1-0.1,0.1-0.1L141.1,29.9L141.1,29.9z
		 M143.9,34.2c1-0.6,1.5-1.6,1.5-2.9c0-2.1-1.4-3.7-4.1-3.7h-4.5c-0.2,0-0.2,0.1-0.2,0.2v13.2c0,0.2,0.1,0.2,0.2,0.2h4.6
		c2.7,0,4.2-1.7,4.2-3.8c0-1.4-0.7-2.5-1.8-3.1C143.8,34.3,143.8,34.3,143.9,34.2"/>
	<path d="M235.5,46.2c0,0-0.7-4.9-1.1-6.9c0,0,0.1,0,0.2-0.1c0.3-0.1,0.4-0.4,0.3-0.6c-0.8-1.4-1.1-3.1-1.1-4.8c0-1.1,0.2-2.1,0.5-3
		c0.2-0.4,0.3-0.6,0.5-1.5c0.1-0.4,0.2-1.3,0.2-1.7c0.1-1.1,0-1.7-0.2-2.7c-0.1-0.3-0.2-0.6-0.3-0.9c0.3-0.3,0.3-0.7,0.1-1.1
		c-0.3-0.5-0.8-0.6-1.2-0.4c-0.1,0.1-0.2,0.1-0.2,0.1c-0.5-0.4-1.3-0.5-1.8-0.5c-0.2,0-0.5,0-0.7,0.1c-0.5,0.1-0.9,0.3-1.3,0.6
		c-0.2,0.1-0.4,0.1-0.4,0.1l-0.5,0.1c-0.3,0-0.5,0-0.5,0c-0.1,0-0.2,0.1-0.2,0.2l0.1,0.7c0,0.2,0.1,0.4,0.3,0.5
		c0.1,0,0.1,0.1,0.1,0.1c0.1,0.2,0.2,0.3,0.3,0.4c0.1,0,0.1,0,0.1-0.1c0.1-0.4,0.4,0.1,0.8-0.2c0.1-0.1,0.2,0.2,0.2,0.4
		c-0.1,0.4-0.4,0.5-0.6,0.6c-0.2,0.1-0.3,0.1-0.3,0.1c0,0.2,0,0.4,0.2,0.6c0.1,0,0.1,0.1,0.1,0.1c0.4,0.1,1.4,0.5,0.1,2.1l0,0
		c0,0-0.1,0.1-0.2,0.3c-0.1,0.1-0.1,0.2-0.1,0.2l-4.2-1.7c-0.1-0.1-0.2-0.1-0.3-0.2l-0.5-0.9c-0.3-0.3-0.5-0.5-0.9-0.5
		c-0.3,0-0.6,0-0.6,0c-0.1,0-0.2,0.1-0.2,0.1c-0.1,0.1-0.1,0.3,0.1,0.5l0.4,0.6c0.1,0.1,0.5,1,0.5,1c0.1,0.1,0.1,0.3,0.3,0.3
		l4.4,3.3l-4.2,2.2l0,0c-0.1,0.1-0.3,0.1-0.4,0.1c-0.2-0.1-0.4-0.1-0.4-0.1c-0.7-0.3-1.3-0.1-1.5,0.2l-0.1,0.1
		c-0.1,0.1-0.1,0.3,0.1,0.3c0,0,0.7,0.4,0.9,0.5l1.1,0.6c0.2,0.1,0.4,0.1,0.5,0.1l4.1-0.8c0.1,1,0.2,1.9,0.4,2.8
		c0.1,0.2,0.1,0.2,0.2,0.3c-1.5,1.1-2.5,2.9-2.5,4.9c0,0.9,0.1,1.8,0.4,2.5c-0.6,0.1-1.2,0.1-1.7,0.5c-0.4,0.3-0.5,0.9-0.5,1.2h3.6
		h0.1c0.1,0,0.2-0.1,0.3-0.2c0.1-0.1,0.1-0.2,0.2-0.3c0.3-1.2,0.9-2.9,1.7-4c0.2-0.2,0.4-0.5,0.6-0.7c0.9,1.2,2,2.3,3.5,3.6
		c-0.4,0.1-0.9,0.2-1.2,0.3c-0.5,0.3-0.7,0.9-0.7,1.2h3.5C235.4,46.8,235.6,46.5,235.5,46.2z"/>
	<g>
		<path class="st2" d="M10.3,33.9v-9.4c0-0.1,0.1-0.2,0.2-0.2h3.2c1.9,0,2.9,1.1,2.9,2.6c0,0.9-0.4,1.6-1.1,2
			c-0.1,0.1-0.1,0.1,0,0.2c0.7,0.4,1.2,1.2,1.2,2.2c0,1.5-1,2.7-3,2.7h-3.3C10.3,34,10.3,34,10.3,33.9z M12,26v2.2
			c0,0.1,0.1,0.1,0.1,0.1h1.3c0.9,0,1.4-0.5,1.4-1.2c0-0.7-0.5-1.2-1.4-1.2h-1.3C12,25.9,12,25.9,12,26z M12,30v2.3
			c0,0.1,0.1,0.1,0.1,0.1h1.5c0.9,0,1.4-0.5,1.4-1.2c0-0.7-0.5-1.2-1.4-1.2h-1.5C12,29.9,12,29.9,12,30z"/>
		<path class="st2" d="M18.9,24.3H24c0.1,0,0.2,0.1,0.2,0.2v1.3c0,0.1-0.1,0.2-0.2,0.2h-3.4c-0.1,0-0.1,0.1-0.1,0.1v2.2
			c0,0.1,0.1,0.1,0.1,0.1H24c0.1,0,0.2,0.1,0.2,0.2v1.3c0,0.1-0.1,0.2-0.2,0.2h-3.4c-0.1,0-0.1,0.1-0.1,0.1v2.3
			c0,0.1,0.1,0.1,0.1,0.1H24c0.1,0,0.2,0.1,0.2,0.2V34c0,0.1-0.1,0.2-0.2,0.2h-5.1c-0.1,0-0.2-0.1-0.2-0.2v-9.5
			C18.8,24.4,18.8,24.3,18.9,24.3z"/>
		<path class="st2" d="M27.9,34h-1.4c-0.1,0-0.2-0.1-0.2-0.2v-9.4c0-0.1,0.1-0.2,0.2-0.2h3c2.1,0,3.7,1.3,3.7,3.5
			c0,1.5-0.8,2.6-2,3.1c-0.1,0.1-0.1,0.1-0.1,0.2l2.1,2.8c0.1,0.1,0.1,0.2-0.1,0.2h-1.7c-0.2,0-0.2-0.1-0.3-0.2l-1.8-2.5
			c-0.1-0.1-0.2-0.2-0.3-0.2h-0.9c-0.1,0-0.1,0.1-0.1,0.1v2.6C28.1,34,28,34,27.9,34z M28.1,26v3.5c0,0.1,0.1,0.1,0.1,0.1h1.3
			c1.1,0,2-0.6,2-1.8c0-1.2-0.9-1.8-2-1.8h-1.3C28.1,25.9,28.1,25.9,28.1,26z"/>
		<path class="st2" d="M35.4,24.3h1.4c0.1,0,0.2,0.1,0.2,0.2v7.8c0,0.1,0.1,0.1,0.1,0.1h3.1c0.1,0,0.2,0.1,0.2,0.2v1.3
			c0,0.1-0.1,0.2-0.2,0.2h-4.7c-0.1,0-0.2-0.1-0.2-0.2v-9.4C35.2,24.4,35.3,24.3,35.4,24.3z"/>
		<path class="st2" d="M43.6,24.5v9.4c0,0.1-0.1,0.2-0.2,0.2H42c-0.1,0-0.2-0.1-0.2-0.2v-9.4c0-0.1,0.1-0.2,0.2-0.2h1.4
			C43.5,24.3,43.6,24.4,43.6,24.5z"/>
		<path class="st2" d="M52,30.9v-6.4c0-0.1,0.1-0.2,0.2-0.2h1.4c0.1,0,0.2,0.1,0.2,0.2v9.4c0,0.1-0.1,0.2-0.2,0.2H52
			c-0.2,0-0.2-0.1-0.3-0.2l-3.6-6.4C48,27.4,48,27.4,48,27.5v6.4c0,0.1-0.1,0.2-0.2,0.2h-1.4c-0.1,0-0.2-0.1-0.2-0.2v-9.4
			c0-0.1,0.1-0.2,0.2-0.2h1.5c0.2,0,0.2,0.1,0.3,0.2l3.6,6.4C51.9,31,52,30.9,52,30.9z"/>
		<path class="st2" d="M66.4,27.8c0,2.1-1.5,3.5-3.7,3.5h-1.1c-0.1,0-0.1,0.1-0.1,0.1v2.4c0,0.1-0.1,0.2-0.2,0.2h-1.4
			c-0.1,0-0.2-0.1-0.2-0.2v-9.4c0-0.1,0.1-0.2,0.2-0.2h2.7C64.9,24.3,66.4,25.7,66.4,27.8z M61.6,29.8h1c1.3,0,2.1-0.7,2.1-1.9
			s-0.7-1.9-2.1-1.9h-1c-0.1,0-0.1,0.1-0.1,0.1v3.7C61.5,29.8,61.5,29.8,61.6,29.8z"/>
		<path class="st2" d="M72.2,24.5l2.7,9.3C75,34,74.9,34,74.7,34h-1.4c-0.1,0-0.2-0.1-0.2-0.1l-0.5-1.7c-0.1-0.1-0.1-0.1-0.2-0.1H69
			c-0.1,0-0.1,0.1-0.2,0.1l-0.5,1.7C68.3,34,68.2,34,68.2,34h-1.4c-0.1,0-0.2-0.1-0.2-0.2l2.7-9.3c0.1-0.2,0.1-0.2,0.3-0.2h2.4
			C72.1,24.3,72.2,24.3,72.2,24.5z M69.5,30.4h2.6c0.1,0,0.1-0.1,0.1-0.1L70.9,26c0-0.1-0.1-0.1-0.1-0.1h-0.2
			c-0.1,0-0.1,0.1-0.1,0.1l-1.2,4.4C69.4,30.4,69.4,30.4,69.5,30.4z"/>
		<path class="st2" d="M77.9,34h-1.4c-0.1,0-0.2-0.1-0.2-0.2v-9.4c0-0.1,0.1-0.2,0.2-0.2h3c2.1,0,3.7,1.3,3.7,3.5
			c0,1.5-0.8,2.6-2,3.1c-0.1,0.1-0.1,0.1-0.1,0.2l2.1,2.8c0.1,0.1,0.1,0.2-0.1,0.2h-1.7c-0.2,0-0.2-0.1-0.3-0.2l-1.8-2.5
			c-0.1-0.1-0.2-0.2-0.3-0.2h-0.9c-0.1,0-0.1,0.1-0.1,0.1v2.6C78.1,34,77.9,34,77.9,34z M78.1,26v3.5c0,0.1,0.1,0.1,0.1,0.1h1.3
			c1.1,0,2-0.6,2-1.8c0-1.2-0.9-1.8-2-1.8h-1.3C78.1,25.9,78.1,25.9,78.1,26z"/>
		<path class="st2" d="M90.9,24.5v1.3c0,0.1-0.1,0.2-0.2,0.2h-2.2c-0.1,0-0.1,0.1-0.1,0.1v7.8c0,0.1-0.1,0.2-0.2,0.2h-1.4
			c-0.1,0-0.2-0.1-0.2-0.2V26c0-0.1-0.1-0.1-0.1-0.1h-2.2c-0.1,0-0.2-0.1-0.2-0.2v-1.3c0-0.1,0.1-0.2,0.2-0.2h6.4
			C90.7,24.3,90.9,24.4,90.9,24.5z"/>
		<path class="st2" d="M98,30.9v-6.4c0-0.1,0.1-0.2,0.2-0.2h1.4c0.1,0,0.2,0.1,0.2,0.2v9.4c0,0.1-0.1,0.2-0.2,0.2H98
			c-0.2,0-0.2-0.1-0.3-0.2l-3.6-6.4C94,27.4,94,27.4,94,27.5v6.4c0,0.1-0.1,0.2-0.2,0.2h-1.4c-0.1,0-0.2-0.1-0.2-0.2v-9.4
			c0-0.1,0.1-0.2,0.2-0.2h1.5c0.2,0,0.2,0.1,0.3,0.2l3.6,6.4C97.9,31,98,30.9,98,30.9z"/>
		<path class="st2" d="M102.3,24.3h5.1c0.1,0,0.2,0.1,0.2,0.2v1.3c0,0.1-0.1,0.2-0.2,0.2h-3.4c-0.1,0-0.1,0.1-0.1,0.1v2.2
			c0,0.1,0.1,0.1,0.1,0.1h3.4c0.1,0,0.2,0.1,0.2,0.2v1.3c0,0.1-0.1,0.2-0.2,0.2h-3.4c-0.1,0-0.1,0.1-0.1,0.1v2.3
			c0,0.1,0.1,0.1,0.1,0.1h3.4c0.1,0,0.2,0.1,0.2,0.2V34c0,0.1-0.1,0.2-0.2,0.2h-5.1c-0.1,0-0.2-0.1-0.2-0.2v-9.5
			C102.1,24.4,102.2,24.3,102.3,24.3z"/>
		<path class="st2" d="M111.3,34h-1.4c-0.1,0-0.2-0.1-0.2-0.2v-9.4c0-0.1,0.1-0.2,0.2-0.2h3c2.1,0,3.7,1.3,3.7,3.5
			c0,1.5-0.8,2.6-2,3.1c-0.1,0.1-0.1,0.1-0.1,0.2l2.1,2.8c0.1,0.1,0.1,0.2-0.1,0.2h-1.7c-0.2,0-0.2-0.1-0.3-0.2l-1.8-2.5
			c-0.1-0.1-0.2-0.2-0.3-0.2h-1c-0.1,0-0.1,0.1-0.1,0.1v2.6C111.4,34,111.4,34,111.3,34z M111.4,26v3.5c0,0.1,0.1,0.1,0.1,0.1h1.3
			c1.1,0,2-0.6,2-1.8c0-1.2-0.9-1.8-2-1.8L111.4,26C111.4,25.9,111.4,25.9,111.4,26z"/>
		<path class="st2" d="M10.7,44.5v-3c0,0,0-0.1-0.1-0.1h-0.3c-0.1,0-0.1-0.1-0.1-0.1V41c0-0.1,0.1-0.1,0.1-0.1h0.3
			c0,0,0.1,0,0.1-0.1v-1.2c0-0.6,0.3-1,0.9-1c0.2,0,0.3,0.1,0.4,0.1c0.1,0,0.1,0.1,0.1,0.1L12,39.3c0,0.1-0.1,0.1-0.1,0.1
			c-0.1-0.1-0.2-0.1-0.2-0.1c-0.2,0-0.3,0.2-0.3,0.4v1.1c0,0,0,0.1,0.1,0.1h0.5c0.1,0,0.1,0.1,0.1,0.1v0.4c0,0.1-0.1,0.1-0.1,0.1
			h-0.5c0,0-0.1,0-0.1,0.1v3c0,0.1-0.1,0.1-0.1,0.1h-0.4C10.7,44.6,10.7,44.5,10.7,44.5z"/>
		<path class="st2" d="M12.4,42.7c0-1.1,0.8-1.9,1.9-1.9s1.9,0.9,1.9,1.9c0,1.1-0.8,1.9-1.9,1.9C13.1,44.6,12.4,43.8,12.4,42.7z
			 M15.5,42.7c0-0.7-0.5-1.4-1.3-1.4s-1.3,0.6-1.3,1.4s0.5,1.4,1.3,1.4S15.5,43.5,15.5,42.7z"/>
		<path class="st2" d="M18.8,40.8C18.8,40.8,18.8,40.9,18.8,40.8l0.1,0.5c0,0.1-0.1,0.1-0.1,0.1s-0.2,0-0.2,0
			c-0.4,0-0.7,0.2-0.9,0.5c-0.1,0.1-0.1,0.1-0.1,0.2v2.5c0,0.1-0.1,0.1-0.1,0.1h-0.4c-0.1,0-0.1-0.1-0.1-0.1V41
			c0-0.1,0.1-0.1,0.1-0.1h0.4c0.1,0,0.1,0.1,0.1,0.1v0.3c0,0.1,0,0.1,0.1,0c0.2-0.3,0.5-0.5,1-0.5C18.7,40.8,18.7,40.8,18.8,40.8z"
			/>
		<path class="st2" d="M25.4,40.5c0,0.5-0.3,1-0.7,1.2c-0.1,0.1-0.1,0.1,0,0.1c0.5,0.2,0.8,0.7,0.8,1.3c0,0.9-0.6,1.5-1.7,1.5h-1.6
			c-0.1,0-0.1-0.1-0.1-0.1v-5.4c0-0.1,0.1-0.1,0.1-0.1h1.6C24.8,39,25.4,39.7,25.4,40.5z M22.7,39.6v1.8c0,0,0,0.1,0.1,0.1h1
			c0.7,0,1.1-0.4,1.1-1s-0.4-1-1.1-1L22.7,39.6C22.7,39.6,22.7,39.6,22.7,39.6z M22.7,42.1V44c0,0,0,0.1,0.1,0.1h1
			c0.7,0,1.1-0.4,1.1-1c0-0.6-0.4-1-1.1-1L22.7,42.1C22.7,42,22.7,42.1,22.7,42.1z"/>
		<path class="st2" d="M28.9,40.9h0.4c0.1,0,0.1,0.1,0.1,0.1v3.5c0,0.1-0.1,0.1-0.1,0.1H29c-0.1,0-0.1-0.1-0.1-0.1v-0.3
			c0-0.1-0.1-0.1-0.1,0c-0.2,0.3-0.5,0.4-1,0.4c-0.8,0-1.2-0.5-1.2-1.2V41c0-0.1,0.1-0.1,0.1-0.1h0.4c0.1,0,0.1,0.1,0.1,0.1v2.3
			c0,0.5,0.3,0.8,0.7,0.8c0.4,0,0.6-0.2,0.9-0.5c0.1-0.1,0.1-0.1,0.1-0.2L28.9,40.9C28.8,41,28.9,40.9,28.9,40.9z"/>
		<path class="st2" d="M30.4,43.8c0-0.1,0-0.1,0.1-0.1l0.4-0.2c0.1,0,0.1,0,0.1,0.1c0.1,0.4,0.4,0.5,0.7,0.5c0.5,0,0.7-0.3,0.7-0.6
			c0-0.4-0.3-0.5-0.6-0.6l-0.3-0.1c-0.5-0.1-0.9-0.5-0.9-1c0-0.6,0.5-1.1,1.2-1.1c0.6,0,1,0.3,1.2,0.9c0,0.1,0,0.1-0.1,0.1l-0.4,0.1
			c-0.1,0-0.1,0-0.1-0.1c-0.1-0.3-0.3-0.5-0.6-0.5c-0.4,0-0.6,0.2-0.6,0.5c0,0.3,0.2,0.5,0.5,0.5l0.3,0.1c0.6,0.1,1,0.5,1,1.1
			c0,0.6-0.5,1.1-1.2,1.1C30.9,44.7,30.5,44.3,30.4,43.8z"/>
		<path class="st2" d="M33.7,39.6c0-0.2,0.2-0.4,0.4-0.4s0.4,0.2,0.4,0.4S34.4,40,34.1,40C33.9,40,33.7,39.8,33.7,39.6z M33.8,44.5
			V41c0-0.1,0.1-0.1,0.1-0.1h0.4c0.1,0,0.1,0.1,0.1,0.1v3.5c0,0.1-0.1,0.1-0.1,0.1L33.8,44.5C33.9,44.6,33.8,44.5,33.8,44.5z"/>
		<path class="st2" d="M36.1,44.6h-0.4c-0.1,0-0.1-0.1-0.1-0.1V41c0-0.1,0.1-0.1,0.1-0.1h0.4c0.1,0,0.1,0.1,0.1,0.1v0.3
			c0,0.1,0.1,0.1,0.1,0c0.2-0.3,0.5-0.4,1-0.4c0.8,0,1.2,0.5,1.2,1.2v2.5c0,0.1-0.1,0.1-0.1,0.1h-0.4c-0.1,0-0.1-0.1-0.1-0.1v-2.3
			c0-0.5-0.3-0.8-0.7-0.8c-0.4,0-0.6,0.2-0.9,0.5c-0.1,0.1-0.1,0.1-0.1,0.2L36.1,44.6C36.2,44.5,36.2,44.6,36.1,44.6z"/>
		<path class="st2" d="M39.4,42.7c0-1.2,0.8-1.9,1.8-1.9c1,0,1.8,0.7,1.8,1.8c0,0.1,0,0.1,0,0.2c0,0.1-0.1,0.1-0.1,0.1h-2.8
			c-0.1,0-0.1,0-0.1,0.1c0.1,0.7,0.5,1.1,1.3,1.1c0.4,0,0.8-0.2,1-0.5c0.1-0.1,0.1-0.1,0.2-0.1l0.3,0.3c0.1,0.1,0.1,0.1,0,0.1
			c-0.4,0.4-0.9,0.6-1.4,0.6C40.2,44.7,39.4,43.9,39.4,42.7z M42.3,42.3c-0.1-0.6-0.5-1-1.2-1c-0.6,0-1.1,0.4-1.2,1
			c0,0.1,0,0.1,0.1,0.1h2.2C42.3,42.4,42.4,42.4,42.3,42.3z"/>
		<path class="st2" d="M43.6,43.8c0-0.1,0-0.1,0.1-0.1l0.4-0.2c0.1,0,0.1,0,0.1,0.1c0.1,0.4,0.4,0.5,0.7,0.5c0.5,0,0.7-0.3,0.7-0.6
			c0-0.4-0.3-0.5-0.6-0.6l-0.3-0.1c-0.5-0.1-0.9-0.5-0.9-1c0-0.6,0.5-1.1,1.2-1.1c0.6,0,1,0.3,1.2,0.9c0,0.1,0,0.1-0.1,0.1l-0.4,0.1
			c-0.1,0-0.1,0-0.1-0.1c-0.1-0.3-0.3-0.5-0.6-0.5c-0.4,0-0.6,0.2-0.6,0.5c0,0.3,0.2,0.5,0.5,0.5l0.3,0.1c0.6,0.1,1,0.5,1,1.1
			c0,0.6-0.5,1.1-1.2,1.1C44.2,44.7,43.8,44.3,43.6,43.8z"/>
		<path class="st2" d="M46.8,43.8c0-0.1,0-0.1,0.1-0.1l0.4-0.2c0.1,0,0.1,0,0.1,0.1c0.1,0.4,0.4,0.5,0.7,0.5c0.5,0,0.7-0.3,0.7-0.6
			c0-0.4-0.3-0.5-0.6-0.6l-0.3-0.1c-0.5-0.1-0.9-0.5-0.9-1c0-0.6,0.5-1.1,1.2-1.1c0.6,0,1,0.3,1.2,0.9c0,0.1,0,0.1-0.1,0.1l-0.4,0.1
			c-0.1,0-0.1,0-0.1-0.1c-0.1-0.3-0.3-0.5-0.6-0.5c-0.4,0-0.6,0.2-0.6,0.5c0,0.3,0.2,0.5,0.5,0.5l0.3,0.1c0.6,0.1,1,0.5,1,1.1
			c0,0.6-0.5,1.1-1.2,1.1C47.4,44.7,47.1,44.3,46.8,43.8z"/>
		<path class="st2" d="M52.4,42.7c0-1.2,0.8-1.9,1.8-1.9c0.5,0,0.9,0.2,1.2,0.5h0.1V41c0-0.1,0.1-0.1,0.1-0.1h0.4
			C56,40.9,56,41,56,41v3.5c0,0.1-0.1,0.1-0.1,0.1h-0.4c-0.1,0-0.1-0.1-0.1-0.1v-0.3c0-0.1,0-0.1-0.1,0c-0.3,0.3-0.7,0.5-1.2,0.5
			C53.2,44.6,52.4,43.9,52.4,42.7z M55.4,43.6c0-0.1,0.1-0.1,0.1-0.2v-1.3c0-0.1,0-0.1-0.1-0.2c-0.2-0.4-0.6-0.6-1.1-0.6
			c-0.8,0-1.3,0.6-1.3,1.4c0,0.9,0.5,1.4,1.3,1.4C54.8,44.2,55.2,43.9,55.4,43.6z"/>
		<path class="st2" d="M57.7,44.6h-0.4c-0.1,0-0.1-0.1-0.1-0.1V41c0-0.1,0.1-0.1,0.1-0.1h0.4c0.1,0,0.1,0.1,0.1,0.1v0.3
			c0,0.1,0.1,0.1,0.1,0c0.2-0.3,0.5-0.4,1-0.4c0.8,0,1.2,0.5,1.2,1.2v2.5c0,0.1-0.1,0.1-0.1,0.1h-0.4c-0.1,0-0.1-0.1-0.1-0.1v-2.3
			c0-0.5-0.3-0.8-0.7-0.8c-0.4,0-0.6,0.2-0.9,0.5c-0.1,0.1-0.1,0.1-0.1,0.2L57.7,44.6C57.8,44.5,57.8,44.6,57.7,44.6z"/>
		<path class="st2" d="M64.1,38.8h0.4c0.1,0,0.1,0.1,0.1,0.1v5.6c0,0.1-0.1,0.1-0.1,0.1h-0.4c-0.1,0-0.1-0.1-0.1-0.1v-0.3
			c0-0.1-0.1-0.1-0.1,0c-0.3,0.3-0.6,0.4-1.2,0.4c-1,0-1.8-0.7-1.8-1.9c0-1.2,0.8-1.9,1.8-1.9c0.5,0,0.9,0.2,1.1,0.4
			c0.1,0.1,0.1,0,0.1,0v-2.3C64,38.9,64,38.8,64.1,38.8z M64,43.6c0-0.1,0.1-0.1,0.1-0.1v-1.4C64,42,64,42,64,42
			c-0.2-0.4-0.6-0.6-1.1-0.6c-0.8,0-1.3,0.6-1.3,1.4c0,0.9,0.5,1.4,1.3,1.4C63.4,44.2,63.8,43.9,64,43.6z"/>
		<path class="st2" d="M71.3,39.1v0.4c0,0.1-0.1,0.1-0.1,0.1h-1.4c0,0-0.1,0-0.1,0.1v4.9c0,0.1-0.1,0.1-0.1,0.1h-0.4
			c-0.1,0-0.1-0.1-0.1-0.1v-4.9c0,0,0-0.1-0.1-0.1h-1.4c-0.1,0-0.1-0.1-0.1-0.1v-0.4c0-0.1,0.1-0.1,0.1-0.1L71.3,39.1
			C71.3,39,71.3,39.1,71.3,39.1z"/>
		<path class="st2" d="M71.4,42.7c0-1.2,0.8-1.9,1.8-1.9s1.8,0.7,1.8,1.8c0,0.1,0,0.1,0,0.2c0,0.1-0.1,0.1-0.1,0.1H72
			c-0.1,0-0.1,0-0.1,0.1c0.1,0.7,0.5,1.1,1.3,1.1c0.4,0,0.8-0.2,1-0.5c0.1-0.1,0.1-0.1,0.2-0.1l0.3,0.3c0.1,0.1,0.1,0.1,0,0.1
			c-0.4,0.4-0.9,0.6-1.4,0.6C72.1,44.7,71.4,43.9,71.4,42.7z M74.3,42.3c-0.1-0.6-0.5-1-1.2-1c-0.6,0-1.1,0.4-1.2,1
			c0,0.1,0,0.1,0.1,0.1h2.2C74.3,42.4,74.3,42.4,74.3,42.3z"/>
		<path class="st2" d="M77.5,40.8c0.6,0,1.2,0.3,1.5,0.8c0,0.1,0,0.1-0.1,0.1L78.6,42c-0.1,0-0.1,0-0.1-0.1c-0.2-0.3-0.6-0.5-1-0.5
			c-0.7,0-1.2,0.6-1.2,1.4c0,0.8,0.5,1.4,1.2,1.4c0.4,0,0.8-0.2,1-0.5c0.1-0.1,0.1-0.1,0.1-0.1l0.3,0.2c0.1,0,0.1,0.1,0.1,0.1
			c-0.3,0.5-0.9,0.8-1.5,0.8c-1.1,0-1.8-0.7-1.8-1.9C75.7,41.6,76.4,40.8,77.5,40.8z"/>
		<path class="st2" d="M80.3,44.6h-0.4c-0.1,0-0.1-0.1-0.1-0.1v-5.6c0-0.1,0.1-0.1,0.1-0.1h0.4c0.1,0,0.1,0.1,0.1,0.1v2.3
			c0,0.1,0,0.1,0.1,0c0.2-0.2,0.5-0.4,0.9-0.4c0.8,0,1.2,0.5,1.2,1.2v2.5c0,0.1-0.1,0.1-0.1,0.1h-0.4c-0.1,0-0.1-0.1-0.1-0.1v-2.3
			c0-0.5-0.3-0.8-0.7-0.8c-0.4,0-0.6,0.2-0.9,0.5c-0.1,0.1-0.1,0.1-0.1,0.2v2.5C80.5,44.5,80.4,44.6,80.3,44.6z"/>
		<path class="st2" d="M84.3,44.6h-0.4c-0.1,0-0.1-0.1-0.1-0.1V41c0-0.1,0.1-0.1,0.1-0.1h0.4c0.1,0,0.1,0.1,0.1,0.1v0.3
			c0,0.1,0.1,0.1,0.1,0c0.2-0.3,0.5-0.4,1-0.4c0.8,0,1.2,0.5,1.2,1.2v2.5c0,0.1-0.1,0.1-0.1,0.1h-0.4c-0.1,0-0.1-0.1-0.1-0.1v-2.3
			c0-0.5-0.3-0.8-0.7-0.8c-0.4,0-0.6,0.2-0.9,0.5c-0.1,0.1-0.1,0.1-0.1,0.2L84.3,44.6C84.5,44.5,84.4,44.6,84.3,44.6z"/>
		<path class="st2" d="M87.6,42.7c0-1.1,0.8-1.9,1.9-1.9s1.9,0.9,1.9,1.9c0,1.1-0.8,1.9-1.9,1.9S87.6,43.8,87.6,42.7z M90.7,42.7
			c0-0.7-0.5-1.4-1.3-1.4s-1.3,0.6-1.3,1.4s0.5,1.4,1.3,1.4S90.7,43.5,90.7,42.7z"/>
		<path class="st2" d="M93.3,44.2v0.4c0,0.1-0.1,0.1-0.1,0.1H93c-0.5,0-0.8-0.2-0.8-0.7v-5c0-0.1,0.1-0.1,0.1-0.1h0.4
			c0.1,0,0.1,0.1,0.1,0.1v5c0,0.2,0.1,0.3,0.2,0.3h0.1C93.3,44.1,93.3,44.1,93.3,44.2z"/>
		<path class="st2" d="M93.9,42.7c0-1.1,0.8-1.9,1.9-1.9s1.9,0.9,1.9,1.9c0,1.1-0.8,1.9-1.9,1.9C94.6,44.6,93.9,43.8,93.9,42.7z
			 M97,42.7c0-0.7-0.5-1.4-1.3-1.4s-1.3,0.6-1.3,1.4s0.5,1.4,1.3,1.4S97,43.5,97,42.7z"/>
		<path class="st2" d="M98.7,45.6c-0.1-0.1-0.1-0.1,0-0.1l0.3-0.3c0.1-0.1,0.1-0.1,0.1,0c0.2,0.3,0.6,0.5,1.1,0.5
			c0.7,0,1.2-0.3,1.2-1v-0.5c0-0.1-0.1-0.1-0.1,0c-0.3,0.3-0.6,0.4-1.1,0.4c-1,0-1.8-0.7-1.8-1.9c0-1.1,0.8-1.8,1.8-1.8
			c0.5,0,0.9,0.2,1.2,0.4c0.1,0.1,0.1,0,0.1,0v-0.3c0-0.1,0.1-0.1,0.1-0.1h0.4c0.1,0,0.1,0.1,0.1,0.1v3.7c0,1-0.7,1.5-1.8,1.5
			C99.5,46.2,99,46,98.7,45.6z M101.3,43.4c0.1-0.1,0.1-0.1,0.1-0.2V42c0-0.1,0-0.1-0.1-0.2c-0.2-0.3-0.6-0.5-1.1-0.5
			c-0.7,0-1.3,0.5-1.3,1.3c0,0.8,0.5,1.3,1.3,1.3C100.7,43.9,101.1,43.7,101.3,43.4z"/>
		<path class="st2" d="M105.4,40.9h0.4c0.1,0,0.1,0.1,0.1,0.1l-1.9,5.1c0,0.1-0.1,0.1-0.1,0.1h-0.4c-0.1,0-0.1-0.1-0.1-0.1l0.5-1.4
			c0-0.1,0-0.1,0-0.2l-1.3-3.4c0-0.1,0-0.1,0.1-0.1h0.4c0.1,0,0.1,0,0.1,0.1l1,2.7c0,0.1,0.1,0.1,0.1,0L105.4,40.9
			C105.3,40.9,105.3,40.9,105.4,40.9z"/>
	</g>
</g>
</svg>
